<?xml version="1.0" encoding="UTF-8" standalone="no"?>
<!-- Created with Inkscape (http://www.inkscape.org/) -->
<svg
   xmlns:dc="http://purl.org/dc/elements/1.1/"
   xmlns:cc="http://web.resource.org/cc/"
   xmlns:rdf="http://www.w3.org/1999/02/22-rdf-syntax-ns#"
   xmlns:svg="http://www.w3.org/2000/svg"
   xmlns="http://www.w3.org/2000/svg"
   xmlns:xlink="http://www.w3.org/1999/xlink"
   xmlns:sodipodi="http://sodipodi.sourceforge.net/DTD/sodipodi-0.dtd"
   xmlns:inkscape="http://www.inkscape.org/namespaces/inkscape"
   width="744.09448819"
   height="1052.3622047"
   id="svg3696"
   sodipodi:version="0.32"
   inkscape:version="0.44.1"
   sodipodi:docbase="/extra2/benda/prj/setup/relacs/logo"
   sodipodi:docname="relacslogo1.svg"
   inkscape:export-filename="/extra2/benda/prj/setup/relacs/doc/web/relacslogo.png"
   inkscape:export-xdpi="90"
   inkscape:export-ydpi="90">
  <defs
     id="defs3698">
    <linearGradient
       inkscape:collect="always"
       id="linearGradient3745">
      <stop
         style="stop-color:#008033;stop-opacity:1;"
         offset="0"
         id="stop3747" />
      <stop
         style="stop-color:#008033;stop-opacity:0;"
         offset="1"
         id="stop3749" />
    </linearGradient>
    <linearGradient
       id="linearGradient3731">
      <stop
         style="stop-color:#008033;stop-opacity:1;"
         offset="0"
         id="stop3733" />
      <stop
         style="stop-color:green;stop-opacity:0;"
         offset="1"
         id="stop3735" />
    </linearGradient>
    <linearGradient
       inkscape:collect="always"
       id="linearGradient2819">
      <stop
         style="stop-color:white;stop-opacity:1;"
         offset="0"
         id="stop2821" />
      <stop
         style="stop-color:white;stop-opacity:0;"
         offset="1"
         id="stop2823" />
    </linearGradient>
    <linearGradient
       id="linearGradient2807">
      <stop
         style="stop-color:#00d455;stop-opacity:1;"
         offset="0"
         id="stop2809" />
      <stop
         style="stop-color:#00d400;stop-opacity:0;"
         offset="1"
         id="stop2811" />
    </linearGradient>
    <linearGradient
       id="linearGradient3810">
      <stop
         style="stop-color:#00bb00;stop-opacity:1"
         offset="0"
         id="stop3812" />
      <stop
         style="stop-color:#00bb00;stop-opacity:0"
         offset="1"
         id="stop3814" />
    </linearGradient>
    <linearGradient
       inkscape:collect="always"
       xlink:href="#linearGradient3810"
       id="linearGradient3816"
       x1="210.02872"
       y1="420.76797"
       x2="166.81442"
       y2="421.12515"
       gradientUnits="userSpaceOnUse" />
    <linearGradient
       inkscape:collect="always"
       xlink:href="#linearGradient3810"
       id="linearGradient3830"
       gradientUnits="userSpaceOnUse"
       x1="210.02872"
       y1="420.76797"
       x2="166.81442"
       y2="421.12515" />
    <linearGradient
       inkscape:collect="always"
       xlink:href="#linearGradient3810"
       id="linearGradient4260"
       gradientUnits="userSpaceOnUse"
       gradientTransform="translate(0.3571429,2.8571429)"
       x1="210.02872"
       y1="420.76797"
       x2="166.81442"
       y2="421.12515" />
    <linearGradient
       inkscape:collect="always"
       xlink:href="#linearGradient2807"
       id="linearGradient2813"
       x1="211.62843"
       y1="427.36667"
       x2="166.17157"
       y2="427.36667"
       gradientUnits="userSpaceOnUse" />
    <linearGradient
       inkscape:collect="always"
       xlink:href="#linearGradient2819"
       id="linearGradient2825"
       x1="422.28772"
       y1="418.75262"
       x2="402.83197"
       y2="418.75262"
       gradientUnits="userSpaceOnUse"
       gradientTransform="translate(-2.933694,-0.651932)"
       spreadMethod="reflect" />
    <linearGradient
       inkscape:collect="always"
       xlink:href="#linearGradient2819"
       id="linearGradient2829"
       gradientUnits="userSpaceOnUse"
       gradientTransform="translate(-184.9337,-0.65193)"
       x1="442.98596"
       y1="419.5564"
       x2="424.19568"
       y2="419.79773"
       spreadMethod="reflect" />
    <linearGradient
       inkscape:collect="always"
       xlink:href="#linearGradient2819"
       id="linearGradient2833"
       gradientUnits="userSpaceOnUse"
       gradientTransform="matrix(-5.272425e-2,-0.998609,0.998609,-5.272425e-2,-94.99151,835.5999)"
       x1="440.79422"
       y1="420.19247"
       x2="428.39783"
       y2="419.06198"
       spreadMethod="reflect" />
    <radialGradient
       inkscape:collect="always"
       xlink:href="#linearGradient3731"
       id="radialGradient3739"
       cx="300.10529"
       cy="501.25296"
       fx="300.10529"
       fy="501.25296"
       r="65.234375"
       gradientTransform="matrix(3.485096,1.720956e-6,-1.710058e-7,0.263128,-744.77,296.7774)"
       gradientUnits="userSpaceOnUse" />
    <linearGradient
       inkscape:collect="always"
       xlink:href="#linearGradient3745"
       id="linearGradient3751"
       x1="229.99394"
       y1="423.1022"
       x2="183.07458"
       y2="422.86176"
       gradientUnits="userSpaceOnUse"
       spreadMethod="reflect" />
  </defs>
  <sodipodi:namedview
     id="base"
     pagecolor="#ffffff"
     bordercolor="#666666"
     borderopacity="1.0"
     gridtolerance="10000"
     guidetolerance="10"
     objecttolerance="10"
     inkscape:pageopacity="0.0"
     inkscape:pageshadow="2"
     inkscape:zoom="2.9406172"
     inkscape:cx="323.62151"
     inkscape:cy="663.41953"
     inkscape:document-units="px"
     inkscape:current-layer="layer2"
     inkscape:window-width="1012"
     inkscape:window-height="740"
     inkscape:window-x="0"
     inkscape:window-y="0"
     showgrid="false"
     showguides="true"
     inkscape:guide-bbox="true" />
  <metadata
     id="metadata3701">
    <rdf:RDF>
      <cc:Work
         rdf:about="">
        <dc:format>image/svg+xml</dc:format>
        <dc:type
           rdf:resource="http://purl.org/dc/dcmitype/StillImage" />
      </cc:Work>
    </rdf:RDF>
  </metadata>
  <g
     inkscape:label="Logo 1"
     inkscape:groupmode="layer"
     id="layer1"
     style="opacity:1;display:none"
     sodipodi:insensitive="true">
    <g
       id="g6200"
       inkscape:export-xdpi="90"
       inkscape:export-ydpi="90">
      <path
         inkscape:export-ydpi="90"
         inkscape:export-xdpi="90"
         style="fill:none;fill-rule:evenodd;stroke:url(#linearGradient4260);stroke-width:4;stroke-linecap:round;stroke-linejoin:round;stroke-miterlimit:4;stroke-dasharray:none;stroke-opacity:1"
         d="M 169.17157,419.36663 C 184.66557,415.77575 207.33479,412.53736 232.1022,412.16174 C 255.32256,411.81459 244.15127,411.99562 267.03024,411.96241 C 271.44082,411.95601 278.5763,413.10604 281.71241,407.041 C 285.13294,400.4259 283.38622,364.45031 286.29718,352.95067 C 293.44699,356.96668 292.29518,384.88693 293.28705,401.67707 C 293.8476,411.16587 294.09291,421.66791 299.12789,423.88675 C 304.179,426.1127 306.84564,420.10588 330.14554,415.91633 C 353.50507,411.71606 363.20319,412.23252 418.74036,412.21199 C 475.24563,412.19148 456.11038,412.15052 470.01571,412.14384"
         id="path2193"
         sodipodi:nodetypes="cssscsszzz" />
      <text
         inkscape:export-ydpi="90"
         inkscape:export-xdpi="90"
         inkscape:export-filename="/extra2/benda/prj/setup/relacs/logo/relacslogo.png"
         sodipodi:linespacing="100%"
         id="text8062"
         y="407.93915"
         x="195.7789"
         style="font-size:95px;font-style:normal;font-variant:normal;font-weight:normal;font-stretch:normal;text-align:start;line-height:100%;writing-mode:lr-tb;text-anchor:start;fill:black;fill-opacity:1;stroke:none;stroke-width:1px;stroke-linecap:butt;stroke-linejoin:miter;stroke-opacity:1;font-family:Delta Hey Max Nine"
         xml:space="preserve"><tspan
           y="407.93915"
           x="195.7789"
           id="tspan8064"
           sodipodi:role="line"
           style="font-size:95px;font-style:normal;font-variant:normal;font-weight:normal;font-stretch:normal;text-align:start;line-height:100%;writing-mode:lr-tb;text-anchor:start;fill:navy;font-family:Penguin Attack">relacs</tspan></text>
      <path
         transform="matrix(0.182892,0,0,0.182892,358.7305,331.6438)"
         d="M 652.60977,480.10118 C 645.22547,486.32022 633.46872,457.03986 624.24277,460.1992 C 615.01682,463.35854 636.27101,492.19146 626.65781,494.34794 C 617.04462,496.50441 626.5315,460.87591 617.04906,459.62589 C 607.56663,458.37587 603.3814,486.4113 594.66953,482.89055 C 585.95767,479.3698 611.64868,465.16154 603.95241,459.0152 C 596.25613,452.86887 578.90202,472.1566 573.20229,464.64327 C 567.50256,457.12994 600.05072,452.11254 598.28352,442.73845 C 596.51632,433.36436 566.84661,448.06256 567.5368,438.57376 C 568.22698,429.08495 598.93336,442.98843 600.62997,433.94559 C 602.32658,424.90275 569.95888,422.11007 574.07208,413.70914 C 578.18528,405.30822 596.7673,427.06134 604.45229,421.66872 C 612.13727,416.27609 592.4254,399.56514 601.3416,396.25624 C 610.25781,392.94733 608.2699,421.61322 617.69138,420.54451 C 627.11286,419.47581 614.78947,390.0147 624.31758,390.5806 C 633.84569,391.1465 617.74294,415.23539 626.77536,418.61368 C 635.80778,421.99197 646.87999,396.61121 653.56959,403.57578 C 660.25919,410.54034 626.59889,420.50098 632.68351,427.88854 C 638.76814,435.27609 662.47056,414.57584 666.22515,423.43861 C 669.97974,432.30138 636.9093,426.71811 637.56288,436.57454 C 638.21645,446.43096 670.98943,443.73041 668.82157,453.08892 C 666.65371,462.44743 637.08618,442.74453 632.76799,451.64076 C 628.4498,460.53698 659.99406,473.88213 652.60977,480.10118 z "
         inkscape:randomized="0.08"
         inkscape:rounded="0.3"
         inkscape:flatsided="false"
         sodipodi:arg2="1.1442357"
         sodipodi:arg1="0.85863636"
         sodipodi:r2="21.232746"
         sodipodi:r1="51.684574"
         sodipodi:cy="439.95941"
         sodipodi:cx="618.70898"
         sodipodi:sides="11"
         id="path2785"
         style="fill:#6f0;fill-opacity:1;stroke:none;stroke-width:4;stroke-miterlimit:4;stroke-dasharray:none;stroke-opacity:1"
         sodipodi:type="star" />
    </g>
  </g>
  <g
     inkscape:groupmode="layer"
     id="layer2"
     inkscape:label="Logo 2"
     style="display:inline"
     sodipodi:insensitive="true">
    <path
       inkscape:export-ydpi="90"
       inkscape:export-xdpi="90"
       style="opacity:1;fill:none;fill-rule:evenodd;stroke:url(#linearGradient2813);stroke-width:6;stroke-linecap:round;stroke-linejoin:round;stroke-miterlimit:4;stroke-dasharray:none;stroke-opacity:1"
       d="M 169.17157,419.36663 C 184.66557,415.77575 207.33479,412.53736 232.1022,412.16174 C 255.32256,411.81459 244.15127,411.99562 267.03024,411.96241 C 271.44082,411.95601 278.5763,413.10604 281.71241,407.041 C 285.13294,400.4259 283.38622,364.45031 286.29718,352.95067 C 293.44699,356.96668 292.29518,384.88693 293.28705,401.67707 C 293.8476,411.16587 294.09291,421.66791 299.12789,423.88675 C 304.179,426.1127 306.84564,420.10588 330.14554,415.91633 C 353.50507,411.71606 363.20319,412.23252 418.74036,412.21199 C 475.24563,412.19148 456.11038,412.15052 470.01571,412.14384"
       id="path2786"
       sodipodi:nodetypes="cssscsszzz" />
    <path
       sodipodi:nodetypes="cssscsszzz"
       id="path2815"
       d="M 170.29632,417.8514 C 185.79032,414.26052 208.45954,411.02213 233.22695,410.64651 C 256.44731,410.29936 245.27602,410.48039 268.15499,410.44718 C 272.56557,410.44078 279.70105,411.59081 282.83716,405.52577 C 286.25769,398.91067 284.51097,362.93508 287.42193,351.43544 C 294.57174,355.45145 293.41993,383.3717 294.4118,400.16184 C 294.97235,409.65064 295.21766,420.15268 300.25264,422.37152 C 305.30375,424.59747 307.97039,418.59065 331.27029,414.4011 C 354.62982,410.20083 364.32794,410.71729 419.86511,410.69676 C 476.37038,410.67625 457.23513,410.63529 471.14046,410.62861"
       style="opacity:1;fill:none;fill-rule:evenodd;stroke:#d5ffd5;stroke-width:1;stroke-linecap:round;stroke-linejoin:round;stroke-miterlimit:4;stroke-dasharray:none;stroke-opacity:1"
       inkscape:export-xdpi="90"
       inkscape:export-ydpi="90" />
    <path
       style="fill:none;fill-rule:evenodd;stroke:url(#linearGradient2825);stroke-width:3;stroke-linecap:round;stroke-linejoin:miter;stroke-miterlimit:4;stroke-dasharray:none;stroke-opacity:1"
       d="M 439.74502,410.15356 C 425.95225,410.27932 427.62786,409.89507 383.55373,410.65662 C 339.47505,411.41823 336.81939,411.88405 321.92141,415.92056"
       id="path2817"
       sodipodi:nodetypes="czs" />
    <path
       transform="matrix(0.182892,0,0,0.182892,358.7305,331.6438)"
       d="M 652.60977,480.10118 C 645.22547,486.32022 633.46872,457.03986 624.24277,460.1992 C 615.01682,463.35854 636.27101,492.19146 626.65781,494.34794 C 617.04462,496.50441 626.5315,460.87591 617.04906,459.62589 C 607.56663,458.37587 603.3814,486.4113 594.66953,482.89055 C 585.95767,479.3698 611.64868,465.16154 603.95241,459.0152 C 596.25613,452.86887 578.90202,472.1566 573.20229,464.64327 C 567.50256,457.12994 600.05072,452.11254 598.28352,442.73845 C 596.51632,433.36436 566.84661,448.06256 567.5368,438.57376 C 568.22698,429.08495 598.93336,442.98843 600.62997,433.94559 C 602.32658,424.90275 569.95888,422.11007 574.07208,413.70914 C 578.18528,405.30822 596.7673,427.06134 604.45229,421.66872 C 612.13727,416.27609 592.4254,399.56514 601.3416,396.25624 C 610.25781,392.94733 608.2699,421.61322 617.69138,420.54451 C 627.11286,419.47581 614.78947,390.0147 624.31758,390.5806 C 633.84569,391.1465 617.74294,415.23539 626.77536,418.61368 C 635.80778,421.99197 646.87999,396.61121 653.56959,403.57578 C 660.25919,410.54034 626.59889,420.50098 632.68351,427.88854 C 638.76814,435.27609 662.47056,414.57584 666.22515,423.43861 C 669.97974,432.30138 636.9093,426.71811 637.56288,436.57454 C 638.21645,446.43096 670.98943,443.73041 668.82157,453.08892 C 666.65371,462.44743 637.08618,442.74453 632.76799,451.64076 C 628.4498,460.53698 659.99406,473.88213 652.60977,480.10118 z "
       inkscape:randomized="0.08"
       inkscape:rounded="0.3"
       inkscape:flatsided="false"
       sodipodi:arg2="1.1442357"
       sodipodi:arg1="0.85863636"
       sodipodi:r2="21.232746"
       sodipodi:r1="51.684574"
       sodipodi:cy="439.95941"
       sodipodi:cx="618.70898"
       sodipodi:sides="11"
       id="path2792"
       style="opacity:1;fill:#6f0;fill-opacity:1;stroke:none;stroke-width:4;stroke-miterlimit:4;stroke-dasharray:none;stroke-opacity:1"
       sodipodi:type="star" />
    <path
       id="path2827"
       d="M 275.4408,409.8135 C 263.25049,410.19431 236.60745,409.89499 226.33953,409.97648 C 216.07162,410.05797 197.98221,413.20004 197.98221,413.20004"
       style="fill:none;fill-rule:evenodd;stroke:url(#linearGradient2829);stroke-width:3;stroke-linecap:round;stroke-linejoin:miter;stroke-miterlimit:4;stroke-dasharray:none;stroke-opacity:1"
       sodipodi:nodetypes="czc" />
    <text
       inkscape:export-ydpi="90"
       inkscape:export-xdpi="90"
       inkscape:export-filename="/extra2/benda/prj/setup/relacs/logo/relacslogo.png"
       sodipodi:linespacing="100%"
       id="text2788"
       y="407.93915"
       x="195.7789"
       style="font-size:95px;font-style:normal;font-variant:normal;font-weight:normal;font-stretch:normal;text-align:start;line-height:100%;writing-mode:lr-tb;text-anchor:start;opacity:1;fill:#0cf;fill-opacity:1;stroke:none;stroke-width:1px;stroke-linecap:butt;stroke-linejoin:miter;stroke-opacity:1;font-family:Delta Hey Max Nine"
       xml:space="preserve"><tspan
         y="407.93915"
         x="195.7789"
         id="tspan2790"
         sodipodi:role="line"
         style="font-size:95px;font-style:normal;font-variant:normal;font-weight:normal;font-stretch:normal;text-align:start;line-height:100%;writing-mode:lr-tb;text-anchor:start;fill:#0cf;font-family:Penguin Attack">relacs</tspan></text>
    <path
       sodipodi:nodetypes="czzsz"
       style="fill:none;fill-rule:evenodd;stroke:url(#linearGradient2833);stroke-width:3;stroke-linecap:round;stroke-linejoin:miter;stroke-miterlimit:4;stroke-dasharray:none;stroke-opacity:1"
       d="M 290.5034,354.45989 C 290.5034,354.45989 292.82646,363.00891 293.44921,373.25825 C 293.76058,378.38292 294.44783,395.07468 295.4621,405.14237 C 295.98724,410.3549 296.46847,422.44506 301.59385,422.60741 C 304.47912,422.69881 316.48875,415.69954 330.0787,414.23309"
       id="path2831"
       inkscape:transform-center-x="1.019285"
       inkscape:transform-center-y="1.7729033" />
    <path
       style="opacity:1;fill:none;fill-opacity:1;fill-rule:evenodd;stroke:url(#radialGradient3739);stroke-width:2;stroke-linecap:round;stroke-linejoin:round;stroke-miterlimit:4;stroke-dasharray:none;stroke-opacity:1"
       d="M 291.30145,402.19724 C 291.5794,406.90232 291.7902,411.95724 292.61395,416.38474 C 293.4377,420.81224 294.82711,425.17197 298.92645,426.97849 C 300.73399,427.77505 302.79987,427.83337 304.55145,427.41599 C 306.30303,426.99861 307.87949,426.27834 309.9577,425.41599 C 314.11412,423.69129 320.3208,421.44685 331.7077,419.19724 C 356.24299,414.35002 398.22076,416.24166 453.77666,416.22112"
       id="path3721"
       sodipodi:nodetypes="csssssc" />
    <path
       style="fill:none;fill-rule:evenodd;stroke:url(#linearGradient3751);stroke-width:2;stroke-linecap:round;stroke-linejoin:miter;stroke-miterlimit:4;stroke-dasharray:none;stroke-opacity:1"
       d="M 275.91328,414.15333 C 266.86613,416.24456 265.52979,415.34546 246.29482,415.21896 C 227.30031,415.09247 215.68586,415.48111 208.45964,416.1012 C 193.7685,417.36185 190.11074,419.1326 184.07459,419.98276"
       id="path3743"
       sodipodi:nodetypes="czzz" />
  </g>
</svg>
